<?xml version="1.0" encoding="utf-8"?>
<!-- Generator: Adobe Illustrator 23.0.2, SVG Export Plug-In . SVG Version: 6.00 Build 0)  -->
<svg version="1.1" id="Layer_1" xmlns="http://www.w3.org/2000/svg" xmlns:xlink="http://www.w3.org/1999/xlink" x="0px" y="0px"
	 viewBox="0 0 498 181.9" style="enable-background:new 0 0 498 181.9;" xml:space="preserve">
<style type="text/css">
	.st0{fill:#1F1852;}
	.st1{fill:#28DA8C;}
	.st2{fill:#9D5DF9;}
	.st3{fill:#FFD901;}
	.st4{fill:#3E81FF;}
</style>
<g>
	<path class="st0" d="M248.5,103c-0.5,0-0.9-0.6-0.6-1c1.9-3.4,4.5-6.1,7.7-8.3c3.5-2.4,7.7-3.6,12.6-3.6c4.6,0,8.7,1.1,12.3,3.2
		c3.3,2,5.8,4.9,7.4,8.7c0.2,0.5-0.2,1-0.6,1H248.5z M396.7,70.8c-0.5,0-0.9-0.4-0.9-0.9v-1.2V57.2c0-2.2,1.8-4,4-4h10.4
		c1.1,0,1.9-0.9,1.9-1.9V32.8c0-1.1-0.9-1.9-1.9-1.9h-13c-14,0-25.3,11.3-25.3,25.3v12.4v1.3c0,0.5-0.4,0.9-0.9,0.9h-9.1h-3.4h-12.1
		c-0.5,0-0.9-0.4-0.9-0.9v-1.2V57.2c0-2.2,1.8-4,4-4H360c1.1,0,1.9-0.9,1.9-1.9V32.8c0-1.1-0.9-1.9-1.9-1.9h-13
		c-14,0-25.3,11.3-25.3,25.3v12.4v1.3c0,0.5-0.4,0.9-0.9,0.9h-11.9c-1.1,0-1.9,0.9-1.9,1.9v17.1c0,0.5-0.6,0.6-0.8,0.2
		c-1.7-2.8-3.6-5.3-5.9-7.6c-4-4.2-8.7-7.4-14.2-9.8c-5.5-2.4-11.5-3.6-18-3.6c-6.3,0-12.1,1.2-17.6,3.6c-5.4,2.4-10.2,5.6-14.3,9.6
		c-4.1,4.1-7.3,8.8-9.6,14.3c-2.3,5.5-3.5,11.4-3.5,17.6c0,6.3,1,12.1,3.1,17.6c2.1,5.5,5.1,10.3,9,14.3c3.9,4.1,8.7,7.3,14.2,9.6
		c5.5,2.4,11.7,3.6,18.5,3.6c11.2,0,20.5-2.7,27.7-8.2c6.7-5.1,11.8-11.9,15.3-20.6c0.4-1-0.3-2-1.3-2h-22.4c-0.5,0-1,0.3-1.3,0.8
		c-1.5,2.9-3.6,5.1-6.2,6.8c-2.9,1.9-6.8,2.8-11.6,2.8c-6,0-10.9-1.5-14.7-4.6c-3.3-2.7-5.6-6.1-7-10.4c-0.3-0.9,0.4-1.9,1.4-1.9
		h63.9c0.8,0,1.4-0.6,1.4-1.4v-6.2c0-6.3-1.1-12.1-3.4-17.6c-0.6-1.4-1.2-2.8-1.9-4.1c-0.2-0.3,0.1-0.7,0.4-0.7h12.7
		c0.5,0,0.9,0.4,0.9,0.9v62.7c0,1.1,0.9,1.9,1.9,1.9h20c1.1,0,1.9-0.9,1.9-1.9V93.1c0-0.5,0.4-0.9,0.9-0.9h12.1h3.4h9.1
		c0.5,0,0.9,0.4,0.9,0.9v62.7c0,1.1,0.9,1.9,1.9,1.9h20c1.1,0,1.9-0.9,1.9-1.9V93.1c0-0.5,0.4-0.9,0.9-0.9h8.2h5.2h11.3
		c0.3,0,0.6,0.2,0.8,0.4l14.7,20.4c0.2,0.3,0.2,0.8,0,1.1l-30.1,41.5c-0.6,0.9,0,2.1,1.1,2.1h24.9c1,0,1.9-0.5,2.5-1.3l16-23
		c0.4-0.5,1.2-0.6,1.6,0l17.5,24.3h26.4c1.1,0,1.7-1.2,1.1-2.1l-30.5-41.3c-0.2-0.3-0.3-0.8,0-1.1l28.2-40.3c0.6-0.9,0-2.1-1.1-2.1
		h-23.9c-1,0-1.9,0.5-2.5,1.3L453.2,94c-0.4,0.6-1.2,0.6-1.6,0l-15.1-21.9c-0.6-0.8-1.5-1.3-2.5-1.3H396.7z"/>
</g>
<path class="st1" d="M177.1,79.5l-11.2-11.2l-22.7-22.7c-12.9-12.9-32.9-12.6-45.5,0l22.7,22.7L143,90.9l11.4,11.4
	c6.3,6.3,16.5,6.3,22.7,0C183.4,96,183.4,85.8,177.1,79.5"/>
<path class="st2" d="M45.6,84.2l22.7-22.7L91,38.8l0.1-0.1l11.2-11.2c6.3-6.3,6.3-16.5,0-22.7s-16.5-6.3-22.7,0L68.3,16L45.6,38.7
	C33,51.3,32.7,71.3,45.6,84.2"/>
<path class="st3" d="M84.2,136.3l-22.7-22.7L38.8,91L27.5,79.6c-6.3-6.3-16.5-6.3-22.7,0s-6.3,16.5,0,22.7L16,113.6l22.7,22.7
	C50.9,148.6,71.6,148.9,84.2,136.3"/>
<path class="st4" d="M136.3,97.7l-22.7,22.7L90.9,143l-11.4,11.4c-6.3,6.3-6.3,16.5,0,22.7c6.3,6.3,16.5,6.3,22.7,0l11.2-11.2
	l22.7-22.7C148.8,130.6,148.5,109.9,136.3,97.7"/>
</svg>
